<svg width="312" height="440" viewBox="0 0 312 440" fill="none" xmlns="http://www.w3.org/2000/svg">
<path fill-rule="evenodd" clip-rule="evenodd" d="M16 0C7.16344 0 0 7.16346 0 16V424C0 432.837 7.16344 440 16 440H296C304.837 440 312 432.837 312 424V360.831L307.635 368.41C301.469 379.116 290.073 385.712 277.74 385.712H162.26C149.927 385.712 138.531 379.116 132.365 368.41L74.6248 268.158C68.4584 257.451 68.4584 244.26 74.6248 233.554L132.365 133.302C138.531 122.595 149.927 116 162.26 116H277.74C290.073 116 301.469 122.595 307.635 133.302L312 140.88V16C312 7.16344 304.837 0 296 0H16Z" fill="#EA3BF6"/>
</svg>
