<svg width="312" height="440" viewBox="0 0 312 440" fill="none" xmlns="http://www.w3.org/2000/svg">
<path fill-rule="evenodd" clip-rule="evenodd" d="M16 0C7.16344 0 0 7.16345 0 16V424C0 432.837 7.16344 440 16 440H296C304.837 440 312 432.837 312 424V385.777C285.161 375.982 266 350.229 266 320C266 289.771 285.161 264.018 312 254.223V245.777C285.161 235.982 266 210.229 266 180C266 149.771 285.161 124.018 312 114.223V16C312 7.16344 304.837 0 296 0H16ZM196 250C157.34 250 126 218.66 126 180C126 141.34 157.34 110 196 110C234.66 110 266 141.34 266 180C266 218.66 234.66 250 196 250ZM196 250C157.34 250 126 281.34 126 320C126 358.66 157.34 390 196 390C234.66 390 266 358.66 266 320C266 281.34 234.66 250 196 250Z" fill="#60BCFF"/>
</svg>
