<svg width="312" height="440" viewBox="0 0 312 440" fill="none" xmlns="http://www.w3.org/2000/svg">
<path fill-rule="evenodd" clip-rule="evenodd" d="M16 0C7.16344 0 0 7.16346 0 16V424C0 432.837 7.16344 440 16 440H296C304.837 440 312 432.837 312 424V292.81C275.962 318.889 247.651 354.79 230.787 396.732C224.451 412.489 202.209 412.674 195.612 397.024C170.986 338.6 124.045 292.432 65.2211 268.779C49.4634 262.443 49.2788 240.202 64.9291 233.605C123.353 208.979 169.521 162.038 193.173 103.214C199.509 87.4562 221.751 87.2716 228.348 102.922C246.022 144.854 275.192 180.473 312 205.985V16C312 7.16344 304.837 0 296 0H16Z" fill="#FFF960"/>
</svg>
